<?xml version="1.0" encoding="UTF-8" standalone="no"?>
<svg
   xmlns:dc="http://purl.org/dc/elements/1.1/"
   xmlns:cc="http://creativecommons.org/ns#"
   xmlns:rdf="http://www.w3.org/1999/02/22-rdf-syntax-ns#"
   xmlns:svg="http://www.w3.org/2000/svg"
   xmlns="http://www.w3.org/2000/svg"
   xmlns:xlink="http://www.w3.org/1999/xlink"
   xmlns:sodipodi="http://sodipodi.sourceforge.net/DTD/sodipodi-0.dtd"
   xmlns:inkscape="http://www.inkscape.org/namespaces/inkscape"
   width="3840"
   height="2160"
   viewBox="0 0 1016 571.5"
   version="1.1"
   id="svg8"
   inkscape:version="1.0.1 (3bc2e813f5, 2020-09-07)"
   sodipodi:docname="Stand_With_Ukraine.svg">
  <defs
     id="defs2">
    <linearGradient
       inkscape:collect="always"
       id="linearGradient1311">
      <stop
         style="stop-color:#0173cb;stop-opacity:1"
         offset="0"
         id="stop1331" />
      <stop
         style="stop-color:#0173cb;stop-opacity:1"
         offset="0.55605751"
         id="stop3312" />
      <stop
         style="stop-color:#f6d710;stop-opacity:1"
         offset="0.55605751"
         id="stop3314" />
      <stop
         style="stop-color:#f6d710;stop-opacity:1"
         offset="1"
         id="stop1333" />
    </linearGradient>
    <linearGradient
       inkscape:collect="always"
       xlink:href="#linearGradient1311"
       id="linearGradient1313"
       x1="43.583641"
       y1="215.2186"
       x2="43.583641"
       y2="226.2457"
       gradientUnits="userSpaceOnUse"
       spreadMethod="pad"
       gradientTransform="matrix(2.6004957,0,0,2.6004957,132.79307,-54.937096)" />
  </defs>
  <sodipodi:namedview
     id="base"
     pagecolor="#ffffff"
     bordercolor="#666666"
     borderopacity="1.0"
     inkscape:pageopacity="0.0"
     inkscape:pageshadow="2"
     inkscape:zoom="0.175"
     inkscape:cx="2102.6538"
     inkscape:cy="1138.6132"
     inkscape:document-units="mm"
     inkscape:current-layer="layer1"
     inkscape:document-rotation="0"
     showgrid="false"
     inkscape:window-width="1680"
     inkscape:window-height="987"
     inkscape:window-x="-8"
     inkscape:window-y="-8"
     inkscape:window-maximized="1"
     inkscape:snap-global="false"
     units="px" />
  <metadata
     id="metadata5">
    <rdf:RDF>
      <cc:Work
         rdf:about="">
        <dc:format>image/svg+xml</dc:format>
        <dc:type
           rdf:resource="http://purl.org/dc/dcmitype/StillImage" />
        <dc:title></dc:title>
      </cc:Work>
    </rdf:RDF>
  </metadata>
  <g
     inkscape:label="Warstwa 1"
     inkscape:groupmode="layer"
     id="layer1"
     style="display:inline">
    <text
       xml:space="preserve"
       style="font-style:normal;font-weight:normal;font-size:73.749px;line-height:1.25;font-family:sans-serif;letter-spacing:0px;word-spacing:0px;mix-blend-mode:normal;fill:url(#linearGradient1313);fill-opacity:1;stroke:none;stroke-width:1.84375;stroke-miterlimit:4;stroke-dasharray:none"
       x="142.34593"
       y="543.12457"
       id="text861"
       transform="scale(1.0060022,0.99403362)"><tspan
         sodipodi:role="line"
         id="tspan859"
         x="142.34593"
         y="543.12457"
         style="font-style:normal;font-variant:normal;font-weight:bold;font-stretch:normal;font-family:'Noto Sans';-inkscape-font-specification:'Noto Sans Bold';fill:url(#linearGradient1313);fill-opacity:1;stroke-width:1.84375;stroke-miterlimit:4;stroke-dasharray:none">#StandWithUkraine</tspan></text>
    <g
       id="g1194"
       transform="matrix(2.6004957,0,0,2.6004957,170.7793,-71.290119)"
       style="display:inline">
      <g
         id="g1167"
         style="display:inline">
        <path
           style="display:inline;fill:#babdb6;stroke-width:0.999999"
           d="m 376.62109,369.44336 c -4.37809,0.18796 -9.12467,-0.6037 -10.19727,0.70265 -1.24226,1.51297 2.31738,5.29367 3.92579,11.46727 1.56107,5.99193 4.36852,21.00294 6.70508,33.31445 2.59945,13.69668 5.0671,28.3207 6.28521,33.06821 1.32575,5.16705 2.68606,11.81888 3.34955,15.34586 1.04943,5.5785 1.95673,7.28353 6.97266,13.11132 9.82666,11.41743 18.97838,16.9473 34.78516,21.01758 6.91434,1.78092 10.5342,2.09502 20.75,1.80664 11.42713,-0.32262 14.97451,0.15598 10.625,1.43164 -21.2693,6.238 -32.84988,7.69946 -45.58594,5.75391 -4.30942,-0.65851 -8.00294,-1.03027 -8.20703,-0.82617 -0.69124,0.69124 -1.75581,29.57338 -1.14844,31.15625 0.58272,1.51852 4.84219,-2.53613 12.62816,-6.31542 l -2.84105,1.23534 c -2.36185,1.04408 -3.99843,1.71484 -4.24219,1.71484 -2.09102,0 0.3553,-18.83538 2.67578,-20.60156 0.79658,-0.60631 4.8324,-1.38867 8.96875,-1.73828 8.72005,-0.73712 12.65621,-1.60304 28.90625,-6.35742 19.73537,-5.7741 24.29822,-8.96799 10.84571,-7.59375 -4.26252,0.43548 -12.475,0.73071 -18.25,0.65625 -14.15879,-0.18217 -19.81104,-2.33365 -29.07032,-11.06836 -7.81511,-7.37242 -11.16719,-13.3558 -13.34375,-23.8125 -3.02649,-14.53913 -3.01295,-23.88836 0.0645,-45.23438 0.97508,-6.7635 -1.15363,-5.15992 -5.7461,4.32813 -2.43844,5.03781 -4.51998,8.20849 -5.04492,7.68359 -0.49153,-0.49152 -1.2892,-3.78977 -1.77344,-7.32812 -0.48423,-3.53832 -2.12257,-14.6655 -3.64062,-24.72656 -2.01585,-13.3595 -2.46172,-18.59106 -1.6543,-19.39844 1.62427,-1.62432 14.65935,1.62797 20.09864,4.64091 l -4.95606,-3.2874 c -2.90579,-2.1159 -5.18295,-4.89896 -7.92383,-7.53878 -3.36035,-3.23647 -4.40226,-5.15889 -5.29576,-4.72656 -2.75322,1.73048 -6.19501,1.30672 -8.66522,2.11886 z"
           transform="scale(0.26458333)"
           id="path1154"
           sodipodi:nodetypes="csssssccsscssccssssscscsssscsccscc" />
        <path
           style="display:inline;fill:#babdb6;stroke-width:0.999999"
           d="m 579.99805,344.18945 c -7.37492,0.0621 -14.11126,1.46234 -19.8418,4.19727 -8.21227,3.91936 -24.28684,15.91973 -31.70703,23.66992 -13.70136,14.31077 -23.50319,29.05844 -28.82813,43.37109 -1.7393,4.67502 -3.78434,9.85001 -4.54297,11.5 -1.15381,2.50977 -1.33724,2.65801 -1.40624,-0.64257 h -1.70313 c -0.36315,5.73202 0.12576,9.14257 1.42383,9.14257 0.43124,0 1.82529,-3.26248 3.0957,-7.25 6.7821,-21.28777 19.82501,-40.62023 35.20508,-52.18164 8.71257,-6.54934 9.12745,-6.35309 8.29297,3.93164 -0.7347,9.05466 0.30136,11.12532 2.6289,5.25 2.12142,-5.35491 9.58464,-15.26866 15.17188,-20.15625 9.69925,-8.48468 31.36736,-17.81978 25.80469,-11.11718 -1.67169,2.01429 -0.20746,2.00378 8.66797,-0.0605 3.74664,-0.87143 10.29803,-1.60188 14.56054,-1.62305 10.88263,-0.2927 6.54305,-2.37233 -3.15234,-4.20117 -8.28153,-2.61612 -16.29501,-3.89217 -23.66992,-3.83008 z"
           transform="scale(0.26458333)"
           id="path1152"
           sodipodi:nodetypes="sssssccssssssssccss" />
        <path
           style="display:inline;fill:#babdb6;stroke-width:0.999999"
           d="m 361.80273,268.39258 c -0.0379,0.11227 -0.0802,0.21829 -0.11718,0.33203 -3.63621,11.17665 -5.15745,18.55272 -5.7793,28.01953 l -0.61328,9.32422 7.79101,11.92969 c 18.03426,27.61573 22.5084,34.08517 25.53516,36.92968 l 3.19141,3 -0.67969,-5.65234 c -0.73618,-6.12125 0.79643,-9.05396 1.96094,-3.75195 0.12232,0.55694 0.26714,1.10619 0.41406,1.65429 l 0.46414,1.86247 c -0.35963,-1.33256 0.38778,-4.54919 0.18234,-5.91911 -0.64172,-4.27935 -0.91154,-4.64819 -3.01172,-4.12109 -1.73302,0.435 -2.84746,-0.10843 -4.48437,-2.18945 -3.01168,-3.82871 -8.48949,-15.68557 -10.53906,-22.81055 -1.86851,-6.49559 -3.50328,-6.18286 -3.53125,0.67773 -0.008,2.0625 -0.44088,3.75 -0.96289,3.75 -1.70589,0 -6.05323,-6.6257 -8.61328,-13.1289 -3.90101,-9.90956 -4.8337,-19.03875 -2.90039,-28.39844 0.96402,-4.66772 0.89588,-9.61277 2.07093,-12.6758 z"
           transform="scale(0.26458333)"
           id="path1150"
           sodipodi:nodetypes="cccccccssccsssscssccc" />
        <path
           style="display:inline;fill:#babdb6;stroke-width:0.999999"
           d="m 529.88086,253.04297 c -0.19947,0.7374 -0.31055,1.53443 -0.31055,2.38086 0,5.29995 3.43696,17.96786 6.69922,24.69726 4.33051,8.93294 14.44115,18.878 25.2207,24.80664 5.00013,2.75 18.56091,10.34863 30.13477,16.88477 l 19.53906,11.0332 1.4482,0.85232 c -1.39325,-1.03879 -3.29259,-3.7709 -6.76265,-5.77029 -8.84187,-5.09449 -20.3193,-15.57375 -26.56055,-24.25 -3.02755,-4.20875 -5.49911,-5.72811 -4.32031,-2.65625 1.77982,4.63769 1.80802,6.40625 0.10156,6.40625 -5.68429,0 -22.99616,-13.20296 -31.35742,-23.91601 -7.88686,-10.10522 -14.4975,-26.25739 -13.34682,-32.1875 z"
           transform="scale(0.26458333)"
           id="path1146"
           sodipodi:nodetypes="cssscccsscsscc" />
        <path
           style="display:inline;fill:#babdb6;stroke-width:0.999999"
           d="m 419.82227,214.88867 c -1.19301,1.33001 -2.18365,2.83033 -2.84571,4.41016 -2.39255,5.70918 -5.40429,17.74723 -5.40429,21.59765 0,9.43965 35.05718,96.34212 38.41601,95.22852 0.59584,-0.19756 1.32673,-2.12211 1.62305,-4.27734 0.34784,-2.52868 1.9819,-6.47719 3.5664,-9.2461 l 2.29574,-2.97694 c -0.56014,-0.43965 -2.69148,0.99829 -2.9012,1.30311 -1.70287,2.47501 -3.47247,4.5 -3.93165,4.5 -1.10573,0 -5.69526,-9.76171 -8.69726,-18.5 -3.08512,-8.98015 -6.86457,-23.99234 -8.37109,-33.24609 -1.17805,-7.23625 -2.84835,-10.42834 -3.17188,-6.0625 -0.094,1.26996 -0.27207,2.9836 -0.39453,3.80859 -0.12246,0.825 -0.26954,2.38449 -0.32813,3.46485 -0.0922,1.70325 -0.28323,1.7697 -1.4375,0.5 -4.26217,-4.68827 -11.55601,-27.79576 -12.39257,-39.26172 -0.57806,-7.92239 0.95643,-14.63255 3.97461,-19.05469 z"
           transform="scale(0.26458333)"
           id="path1140"
           sodipodi:nodetypes="cssscccsssscscsscc" />
        <path
           style="display:inline;fill:#babdb6;stroke-width:0.999999"
           d="m 493.09961,195.42633 c -7.33451,9.0805 -10.32355,17.78721 -10.94727,20.63031 -0.42451,1.93516 0.0463,6.12893 1.23633,11 1.05782,4.32985 2.90816,12.5961 4.11133,18.37109 1.20317,5.77501 3.06096,14.4375 4.12891,19.25 1.0679,4.8125 2.81551,12.68751 3.88281,17.5 4.42658,19.9598 5.4077,23.92702 6.80469,27.49415 0.80632,2.05882 1.80837,3.53266 2.22461,3.27539 0.41627,-0.25728 1.32346,-2.49543 2.01757,-4.97461 1.32967,-4.74909 2.41991,-4.94579 2.83399,-1.13868 l -0.0156,-0.53664 0.66018,-9.36961 -1.98242,3.24415 c -1.0907,1.7839 -2.26141,3.24699 -2.60157,3.25 -1.67602,0.017 -7.26915,-28.44764 -8.5371,-43.44727 -0.59804,-7.07485 -0.7622,-7.47943 -2.80469,-6.9668 -1.92072,0.48207 -2.30565,-0.0556 -3.37695,-4.69726 -2.03335,-8.80894 -3.43466,-24.9425 -2.90626,-33.46485 0.34672,-5.59063 1.2117,-9.28333 3.80274,-14.33008 z"
           transform="scale(0.26458333)"
           id="path1136"
           sodipodi:nodetypes="csssssssscccccsscscc" />
        <path
           style="display:inline;fill:#babdb6;stroke-width:0.999999"
           d="m 553.16211,197.73828 c -0.42648,3.50341 -0.59609,9.14738 -0.76172,20.16602 l -0.32812,21.86523 11,3.32813 c 6.05,1.83134 16.625,4.87929 23.5,6.77148 3.39681,0.9349 11.46281,3.14221 13.98744,3.72768 l -5.04464,-2.52651 c -7.01413,-1.32286 -21.57391,-6.19474 -27.46429,-9.08203 -11.24205,-5.51051 -11.17803,-5.3862 -13.10351,-25.3418 -1.18786,-12.31119 -1.85823,-19.66883 -1.20303,-22.63314 z"
           transform="scale(0.26458333)"
           id="path1134"
           sodipodi:nodetypes="ccccsccsscc" />
        <path
           style="display:inline;fill:#babdb6;stroke-width:0.999999"
           d="m 575.32031,190.49023 c 0.80927,0.0715 -0.38243,1.30603 -3.77148,3.52539 -3.01244,1.97287 -6.48903,4.52582 -7.72656,5.67383 -1.2375,1.14801 -2.25,1.62053 -2.25,1.04883 0,-2.11111 4.13106,-6.19557 8.31835,-8.22266 2.9601,-1.43284 4.80026,-2.08098 5.42969,-2.02539 z"
           transform="scale(0.26458333)"
           id="path1132" />
        <path
           style="display:inline;fill:#babdb6;stroke-width:0.264583"
           d="m 147.33397,173.49169 c 0.4243,-0.47997 0.48798,-1.41458 0.6382,-9.3667 0.15251,-8.07346 0.13049,-8.80349 -0.25589,-8.4845 -0.23252,0.19195 -0.50086,0.72773 -0.59631,1.19062 -0.31274,1.5166 -1.24706,4.54033 -1.4823,4.79714 -0.13134,0.14338 -0.23025,-1.93084 -0.23025,-4.82865 0,-4.66898 -0.0376,-5.08 -0.46476,-5.08 -0.59907,0 -1.45569,0.26268 -4.69461,1.43956 -2.85542,1.03753 -9.21135,2.91348 -10.71563,3.1627 l -0.92604,0.15343 0.92604,-0.41159 c 0.50933,-0.22638 3.42636,-1.47748 6.48229,-2.78023 3.05594,-1.30275 7.55055,-3.34877 9.98802,-4.54671 2.43748,-1.19793 4.43248,-2.11819 4.43334,-2.04501 7.9e-4,0.0732 0.1672,1.26415 0.36966,2.6466 0.20246,1.38245 0.44699,3.34698 0.54342,4.36562 0.0964,1.01865 0.46585,4.61676 0.82096,7.9958 0.3551,3.37904 0.87951,6.1664 0.87951,6.43911 0,0.66644 -2.48721,3.40285 -4.67353,5.19696 -0.48295,0.46113 -1.36929,1.44672 -1.04212,0.15585 z"
           id="path887" />
      </g>
      <path
         style="fill:#2c303a;stroke-width:0.265;stroke-miterlimit:4;stroke-dasharray:none"
         d="m 152.70246,166.73474 c -0.0679,-0.32742 -0.25635,-1.96453 -0.41886,-3.63802 -0.60604,-6.24092 -1.32695,-12.8865 -1.5786,-14.55208 -0.14292,-0.94589 -0.26224,-1.85535 -0.26516,-2.02104 -0.003,-0.16568 0.94718,-0.79679 2.11134,-1.40245 1.82016,-0.94696 2.11917,-1.03448 2.13455,-0.6248 0.01,0.26203 0.1106,4.22688 0.22393,8.81079 0.22012,8.9036 0.1143,10.21971 -1.02647,12.76615 -0.61518,1.37319 -0.98972,1.58302 -1.18073,0.66145 z m -48.83461,-28.94691 v -6.52348 l -2.45682,-2.5385 -2.456812,-2.5385 -0.731811,-3.30729 c -0.803402,-3.63085 -1.438916,-6.6084 -2.315324,-10.84792 -0.315865,-1.52797 -0.786665,-3.67109 -1.046221,-4.7625 -0.259553,-1.0914 -0.555646,-2.52015 -0.657982,-3.175 -0.102332,-0.65484 -0.300598,-1.40853 -0.440586,-1.67487 -0.371139,-0.70611 0.933881,-3.252665 2.000033,-3.902773 1.713791,-1.045016 1.39678,-1.938477 3.997383,11.266183 0.65918,3.34698 1.43118,7.21651 1.71557,8.59896 0.28439,1.38245 0.66071,3.27705 0.83626,4.21023 0.27766,1.47598 0.51763,1.92725 1.84475,3.46922 2.59997,3.02086 5.02142,4.4839 9.20363,5.56083 1.82942,0.47108 2.78724,0.55451 5.49017,0.4782 3.02343,-0.0854 3.9618,0.041 2.81099,0.37852 -5.6275,1.65047 -8.69136,2.03722 -12.06111,1.52246 -1.1402,-0.17418 -2.11995,-0.26982 -2.17722,-0.21256 -0.0573,0.0573 -0.18511,1.98219 -0.28408,4.2776 l -0.17995,4.17346 -1.40184,1.0356 c -0.77102,0.56959 -1.46647,1.03561 -1.54544,1.03561 -0.079,0 -0.14359,-2.93557 -0.14359,-6.52348 z m 26.73984,-25.52829 c -0.0239,-2.11049 1.1332,-6.30591 2.48861,-9.02298 0.63469,-1.27231 1.05203,-2.3763 0.92742,-2.45331 -0.12462,-0.077 -1.45402,0.0915 -2.95424,0.37459 -1.50022,0.28304 -3.70217,0.69117 -4.89323,0.90696 -2.67305,0.48428 -6.39354,2.20224 -8.91193,4.11514 -0.99939,0.75912 -1.87872,1.31856 -1.95407,1.24321 -0.2215,-0.2215 0.63744,-1.37237 2.05425,-2.75242 0.72601,-0.70717 1.32002,-1.40066 1.32002,-1.54107 0,-0.15306 -1.6159,-0.25339 -4.0349,-0.25053 -4.67244,0.005 -6.08184,-0.31148 -8.45907,-1.90259 -2.42744,-1.62472 -3.88818,-3.176865 -8.131188,-8.639966 -2.197388,-2.829252 -4.23019,-5.218665 -4.517337,-5.309804 -0.288848,-0.09168 -0.522089,-0.400452 -0.522089,-0.691165 0,-0.289005 -0.672433,-1.368232 -1.494295,-2.398284 l -1.494292,-1.872822 0.05437,-1.883367 c 0.06895,-2.388484 0.811747,-6.240164 1.856004,-9.624145 0.645941,-2.093217 1.042493,-2.895761 1.927823,-3.901551 2.073704,-2.35585 5.058511,-3.09622 8.327774,-2.065676 1.23268,0.388568 1.46403,0.39724 1.76448,0.06615 0.19019,-0.209583 0.91875,-2.107463 1.61902,-4.217515 0.70028,-2.110052 1.5432,-4.37224 1.87317,-5.027084 1.25612,-2.492835 3.60037,-3.952996 6.3624,-3.962939 1.99002,-0.0072 2.63818,0.214707 6.29713,2.15556 1.59969,0.848538 3.05561,1.542796 3.23538,1.542796 0.17977,0 1.18421,-1.398984 2.23209,-3.108854 1.04788,-1.70987 2.20467,-3.55741 2.57064,-4.105646 1.80749,-2.707667 4.37136,-3.908869 7.2579,-3.400415 1.76571,0.311025 1.87603,0.370427 5.53131,2.97838 1.39969,0.998636 2.66359,1.815702 2.80868,1.815702 0.1451,0 0.9912,-0.879365 1.88023,-1.954147 1.85533,-2.242986 3.81466,-3.965677 5.14046,-4.519635 2.30614,-0.963564 6.47858,-0.718895 8.93071,0.523689 1.35253,0.685378 3.52807,2.747047 4.13903,3.922386 0.66024,1.270125 1.14457,4.115795 1.32191,7.76678 0.16798,3.458324 0.0362,4.92709 -0.85843,9.568914 -0.64803,3.362285 -0.63624,3.402087 1.61111,5.437439 2.30354,2.086263 4.89289,5.327393 4.89289,6.124527 0,0.100005 -0.62508,-0.351642 -1.38906,-1.003662 -0.76398,-0.652018 -1.98438,-1.548244 -2.71198,-1.991612 -1.46956,-0.895482 -8.95884,-3.358755 -9.53716,-3.136833 -0.2024,0.07767 -0.54402,0.533347 -0.75917,1.012621 -0.7441,1.65758 -1.74533,2.434526 -3.50099,2.716734 -1.31107,0.210743 -1.7268,-0.197271 -0.65385,-0.641705 1.73637,-0.719227 3.23852,-3.193746 2.36929,-3.902975 -0.43327,-0.353512 -12.02208,-3.581654 -12.86387,-3.58331 -0.95206,-0.0019 -1.64487,0.805013 -1.64487,1.915724 0,1.402278 0.90905,4.754335 1.77219,6.534824 1.14578,2.363507 3.82101,4.994746 6.6731,6.563366 1.32295,0.727604 4.91083,2.737842 7.97308,4.467196 l 5.56772,3.144279 -0.542,0.57694 c -0.68426,0.728358 -0.68358,1.344861 0.003,2.625648 0.29969,0.559154 0.48943,1.072107 0.42164,1.139896 -0.0678,0.06779 -1.0866,-0.181073 -2.26403,-0.553021 -4.3823,-1.384369 -8.47969,-1.349629 -11.51209,0.09761 -2.17284,1.036997 -6.42598,4.211949 -8.38923,6.26252 -3.62515,3.786392 -6.21893,7.688502 -7.62782,11.475392 -0.46019,1.23693 -1.00093,2.60615 -1.20165,3.04271 -0.36196,0.78726 -0.36508,0.78154 -0.38187,-0.69864 z M 111.87873,98.522482 c 1.4367,-0.398976 2.77246,-1.673571 3.12804,-2.984823 0.35863,-1.322485 0.15379,-3.991067 -0.40149,-5.230375 -0.22105,-0.493358 -1.16777,-2.742486 -2.10383,-4.998059 -0.93605,-2.255573 -2.77773,-6.317215 -4.09261,-9.025874 -2.23788,-4.610021 -2.49749,-5.020368 -4.06116,-6.419427 -3.7726,-3.375438 -7.316097,-2.869238 -8.651668,1.235911 -0.962081,2.957156 -1.364724,4.909193 -1.529255,7.413954 l -0.162023,2.466584 2.061403,3.156614 c 4.771563,7.306662 5.955223,9.018587 6.756053,9.771197 l 0.8446,0.79375 -0.17992,-1.495935 c -0.19478,-1.619581 0.21072,-2.395146 0.51883,-0.992323 0.64126,2.919643 2.58414,5.411788 4.85013,6.221286 1.19204,0.425841 1.74678,0.441904 3.0229,0.08752 z m 16.61656,-4.554765 c 1.854,-1.24941 2.62065,-5.654566 1.60266,-9.208865 -0.30925,-1.079743 -0.99185,-3.45145 -1.51688,-5.27046 -0.52504,-1.819011 -1.12002,-3.902605 -1.32219,-4.630209 -0.37241,-1.340307 -0.5723,-2.041963 -2.33661,-8.202083 -1.51096,-5.275527 -3.53451,-7.749826 -8.26459,-10.105507 -2.03095,-1.01146 -2.57635,-1.178427 -3.36565,-1.030354 -1.20662,0.226364 -2.45396,1.278426 -2.9669,2.502421 -0.63302,1.510555 -1.43019,4.695694 -1.43019,5.714453 0,2.497572 9.2757,25.490591 10.16439,25.195951 0.15766,-0.05227 0.35083,-0.561594 0.42926,-1.131834 0.15324,-1.113994 1.24976,-3.285755 1.65897,-3.285755 0.14116,0 0.17148,0.372285 0.07,0.859896 -0.62258,2.992372 -0.32896,5.077961 0.97218,6.905239 1.5037,2.111748 4.48982,2.910713 6.30553,1.687107 z m 13.15497,-6.121328 c 2.2544,-1.177756 3.83056,-4.927709 2.52619,-6.010241 -0.7573,-0.628507 -4.46777,-5.337418 -5.18568,-6.58109 -1.49538,-2.590506 -1.88632,-4.315052 -1.90264,-8.39317 -0.0142,-3.538474 0.0198,-3.797806 0.56895,-4.346985 0.5665,-0.5665 0.6489,-0.574093 2.74602,-0.253059 1.3167,0.201563 2.25721,0.235749 2.40553,0.08744 0.14831,-0.148312 0.1478,-1.54056 -0.001,-3.560926 -0.21243,-2.878569 -0.3454,-3.505096 -1.00517,-4.736287 -0.82347,-1.536657 -2.8764,-3.136737 -6.09895,-4.7536 -1.50034,-0.752774 -1.71397,-0.793796 -2.60405,-0.500042 -0.79225,0.261467 -1.22183,0.714092 -2.34824,2.474257 -1.95883,3.060926 -2.97195,4.937273 -3.18143,5.892161 -0.11232,0.512011 0.0125,1.621614 0.32733,2.910418 0.27988,1.145606 0.76934,3.333078 1.08768,4.861046 0.31834,1.527969 0.80998,3.819922 1.09253,5.093229 0.28256,1.273308 0.74478,3.356902 1.02717,4.630209 1.17119,5.281028 1.43097,6.330521 1.80059,7.274324 0.21334,0.544763 0.47801,0.934781 0.58814,0.866714 0.11014,-0.06807 0.35051,-0.660447 0.53417,-1.316396 0.44685,-1.595998 0.79644,-1.276094 0.79948,0.7316 0.003,2.276849 1.0437,4.094989 2.97748,5.204015 1.5152,0.86896 2.73929,1.004662 3.8462,0.426387 z M 159.88795,62.94834 c 0.3246,-2.180836 0.62233,-5.274844 0.66161,-6.875573 0.0687,-2.799457 0.0361,-2.996159 -0.85463,-5.159375 -1.15907,-2.814878 -3.00049,-4.878689 -4.61994,-5.17789 -2.68157,-0.495432 -6.72187,1.996999 -8.3222,5.133905 -0.44807,0.878279 -0.52053,1.701929 -0.59694,6.784542 l -0.087,5.784908 2.91042,0.880988 c 4.76453,1.442233 9.49759,2.705232 9.92172,2.64758 0.30167,-0.04101 0.53812,-1.00393 0.98692,-4.019085 z m -11.30552,-9.83648 c 0,-0.558564 1.09332,-1.639031 2.20124,-2.175364 1.79015,-0.866602 2.03267,-0.647187 0.43856,0.396792 -0.79704,0.521985 -1.71706,1.197583 -2.04449,1.501329 -0.32742,0.303746 -0.59531,0.428506 -0.59531,0.277243 z"
         id="path849" />
      <path
         style="fill:#f6d710;stroke-width:0.264583"
         d="m 76.86964,143.35122 c -2.713516,-3.27627 -3.688231,-4.56739 -3.69171,-4.8901 -0.0011,-0.0889 0.947827,-1.00386 2.108414,-2.03322 5.688161,-5.04505 8.357375,-9.37333 9.41542,-15.26764 0.715,-3.98322 0.474668,-7.78921 -1.094327,-17.3302 -0.6556,-3.986681 -0.652185,-8.689753 0.0078,-10.715626 0.675349,-2.07308 2.582868,-4.05207 4.651888,-4.82619 2.163062,-0.809305 5.518735,-1.27081 5.95793,-0.819394 0.189384,0.194654 1.954509,2.43222 3.922498,4.972368 2.453937,3.167372 3.971587,4.54834 3.799027,4.756258 -0.13839,0.166742 -1.73008,0.539531 -2.959644,0.626301 -2.696459,0.190294 -3.623802,0.626118 -4.479314,2.105152 -1.1841,2.047111 -1.581698,4.392431 -1.400394,8.260551 0.160406,3.42229 0.535532,5.27323 2.038741,10.05951 0.497779,1.58494 0.563092,2.26996 0.454078,4.7625 -0.106553,2.43632 -0.265467,3.27796 -0.974074,5.15889 -2.053505,5.45084 -5.5611,10.3458 -11.78836,16.45103 -1.253156,1.2286 -2.333847,2.07115 -2.656546,2.07115 -0.374131,0 -1.408131,-1.04335 -3.311411,-3.34134 z"
         id="path1007"
         sodipodi:nodetypes="sccsssssssssssssssss" />
      <path
         style="fill:#f6d710;stroke-width:0.264583"
         d="m 99.881077,177.31808 c -0.166653,-0.61847 -0.31255,-2.25558 -0.324218,-3.63802 -0.05103,-6.04637 3.023651,-12.46987 8.676221,-18.12604 3.72561,-3.72797 6.13095,-5.27332 17.59519,-11.30431 26.8784,-14.13992 40.9803,-24.56836 52.15319,-38.56757 2.88837,-3.61902 5.12134,-7.666381 6.23477,-11.300797 0.64941,-2.119806 0.71277,-2.710947 0.71713,-6.690867 0.005,-4.359428 0.003,-4.369755 -0.98968,-7.276043 -0.54696,-1.600729 -1.42259,-3.684323 -1.94585,-4.630207 -3.01568,-5.451359 -7.85698,-10.725063 -13.99416,-15.244043 l -2.85875,-1.971157 -0.11633,-3.461642 c -0.0961,-2.858095 -0.36473,-4.034072 -1.18649,-7.542597 -0.127,-0.542223 0.0897,-0.827674 1.08583,-0.603859 3.41923,0.768249 9.6593,3.706969 13.93297,6.561638 5.23938,3.499736 10.24824,9.056094 12.83293,14.235644 7.06167,14.151157 5.3284,30.415989 -4.92508,46.21657 -1.98476,3.05851 -2.87338,4.17834 -7.5915,9.56673 -6.28279,7.17536 -9.56507,10.33722 -14.45527,13.92495 -2.31974,1.70189 -6.9102,4.72674 -8.11088,5.34458 -0.45915,0.23628 -0.99493,0.5812 -1.19062,0.76649 -0.19569,0.1853 -1.12079,0.69409 -2.05579,1.13065 -0.935,0.43656 -2.17735,1.13783 -2.76079,1.55837 -2.38608,1.7199 -20.80653,10.02083 -23.58504,10.62829 -1.2373,0.27051 -9.4758,4.37618 -12.63582,6.29708 -7.45578,4.53218 -12.10184,9.31099 -13.34792,13.72928 -0.23599,0.83675 -0.52402,1.52136 -0.64007,1.52136 -0.11605,0 -0.34736,-0.50602 -0.514013,-1.12448 z"
         id="path1005" />
      <path
         style="fill:#f6d710;stroke-width:0.264583"
         d="m 129.74541,204.53869 c -2.40124,-2.99469 -5.28912,-6.73699 -6.21356,-8.05191 -0.24427,-0.34746 -0.32599,-0.69628 -0.19031,-0.81241 0.13077,-0.11193 1.90464,-0.47386 3.94193,-0.80428 11.49952,-1.86509 20.20416,-5.49984 25.78954,-10.7688 4.22988,-3.99026 6.56927,-8.41764 6.77965,-14.04497 0.10771,-2.8808 -0.31802,-4.68719 1.7011,0.13062 1.19239,2.84516 0.93472,8.28482 -0.33148,12.22436 -2.08942,6.5008 -7.90754,12.57949 -16.74089,17.49065 -4.52951,2.51831 -12.25882,6.05727 -13.22946,6.05727 -0.20213,0 -0.88006,-0.63924 -1.50652,-1.42053 z"
         id="path1003"
         sodipodi:nodetypes="sssssssssss" />
      <path
         id="path851"
         style="fill:#0670c0;stroke-width:0.999999"
         d="m 622.65862,232.67245 c -0.35683,3.02973 -1.36953,8.35479 -2.13572,12.10325 -2.46493,12.05955 -1.91327,12.39054 6.55522,20.06023 9.25378,8.38091 19.01517,20.84672 18.21458,23.12551 2.62816,1.40544 9.49533,23.88406 9.57058,35.96628 0.0417,9.33551 -0.45394,13.99837 -2.23047,21 -6.92481,27.29139 -23.16801,52.76743 -50.6914,79.50196 -14.15925,13.75336 -23.75466,21.50845 -41.86914,33.83398 -6.6,4.4908 -15.59999,10.66119 -20,13.71289 -26.75456,18.55601 -50.12514,30.11665 -92,45.51172 -7.70004,2.83087 -19.12856,7.57705 -25.39649,10.54492 -5.2551,2.48831 -9.93725,4.57711 -11.60351,5.19336 -6.81883,4.37383 -16.32982,9.76822 -21.0586,14.03906 l -6.89258,7.16211 c -7.61682,7.91309 -11.14665,13.28736 -14.12109,21.5 -0.996,2.74999 -2.34573,5.90001 -3,7 -0.65427,1.1 -2.25544,5.37503 -3.55859,9.5 -2.10551,6.66467 -2.36914,9.3935 -2.36914,24.5 0,14.58917 0.31844,18.14949 2.25585,25.09766 3.62255,12.99126 9.21143,25.88868 13.95899,32.21875 1.36772,1.82362 2.69813,3.1046 2.95703,2.8457 0.25901,-0.25897 -0.27154,-2.65176 -1.17969,-5.3164 -1.05702,-3.10156 -1.69246,-8.4439 -1.76367,-14.84571 -0.25926,-23.31012 11.18605,-47.4106 32.76953,-69.00781 14.08101,-14.08996 23.17254,-19.93031 66.50196,-42.72461 101.58761,-53.4422 154.88503,-92.85718 197.11328,-145.76758 10.91667,-13.67818 19.35621,-28.97456 23.56445,-42.71093 2.45454,-8.01187 4.21105,-10.12057 4.22617,-25.1628 0.0181,-16.47657 -1.50213,-16.64187 -5.25547,-27.62627 -2.06725,-6.04999 -5.37779,-13.925 -7.35547,-17.5 -7.96482,-14.39774 -20.74978,-30.16412 -34.95703,-43.10742 -9.26447,-8.44026 -28.7384,-24.3678 -28.7384,-21.95705 -1.02897,3.38441 -1.20045,8.46423 -1.51118,11.3092 z m -283.74217,75.21586 -0.84418,0.0394 -11,0.65625 c -33.90383,2.01863 -50.8407,19.65376 -54.07813,56.3125 -0.59552,6.74335 -0.29637,10.53702 3.04492,38.53125 1.78524,14.95714 1.94879,29.93685 0.40625,37.20118 -3.29553,15.51972 -14.89657,27.91016 -32.12304,34.30664 -3.04246,1.1297 -4.75,2.35999 -4.75,3.41992 0,1.45587 23.21288,30.96214 32.62109,41.46484 l 3.48828,3.89453 3.19531,-2.93164 c 1.75723,-1.61242 5.66493,-5.1659 8.68555,-7.89453 23.88065,-21.57226 34.03393,-43.51517 33.99023,-73.46094 -0.0144,-9.84937 -1.4645,-22.11596 -5.55664,-47 -2.44879,-14.89164 -2.46298,-32.86011 -0.0312,-40.27148 3.81122,-11.616 13.20967,-18.5986 28.66602,-21.29687 7.97272,-1.39185 15.29875,0.64801 8.20466,-2.59634 -1.09574,-4.47734 -4.52661,-7.95782 -6.95075,-11.03057 l -5.60885,-7.06741 c 0.2512,-0.68039 0.30476,-1.50975 0.24585,-2.41222 z m 247.91753,298.72497 -1.16406,7.04688 c -1.24581,7.54363 -4.56056,16.56284 -6.75586,18.3789 -0.73814,0.61066 -1.34179,2.22749 -1.34179,3.59375 0,3.11505 -7.65101,12.00183 -16.78125,19.49414 -22.01878,18.06871 -67.45129,29.26078 -118.91016,29.29102 -10.00505,0.006 -18.41827,0.37803 -18.69531,0.82617 -0.46311,0.74937 8.88683,13.02257 33.08593,43.43359 10.84154,13.62456 8.9428,12.96277 27.95118,9.74415 51.00536,-8.63664 86.55326,-26.29933 106.67187,-53 8.63059,-11.45424 13.70639,-27.05028 13.99024,-42.99415 l 0.1875,-10.5 -4.15625,-7 c -2.28545,-3.84997 -6.38936,-9.54629 -9.11914,-12.6582 z"
         transform="scale(0.26458333)"
         sodipodi:nodetypes="cssccsssssscccssssssssssssscsssccccssssscccsscsssccccccsssssssscccccc" />
    </g>
  </g>
</svg>
